<svg xmlns="http://www.w3.org/2000/svg" x="0px" y="0px"
width="24" height="24"
viewBox="0 0 172 172"
style=" fill:#000000;"><g fill="none" fill-rule="nonzero" stroke="none" stroke-width="1" stroke-linecap="butt" stroke-linejoin="miter" stroke-miterlimit="10" stroke-dasharray="" stroke-dashoffset="0" font-family="none" font-weight="none" font-size="none" text-anchor="none" style="mix-blend-mode: normal"><path d="M0,172v-172h172v172z" fill="none"></path><g fill="#e74c3c"><path d="M72.24,6.88c-5.65719,0 -10.32,4.66281 -10.32,10.32v6.88h-34.4c-1.23625,-0.01344 -2.39187,0.63156 -3.02344,1.70656c-0.61813,1.075 -0.61813,2.39187 0,3.46687c0.63156,1.075 1.78719,1.72 3.02344,1.70656h3.44v123.84c0,5.68406 4.63594,10.32 10.32,10.32h89.44c5.68406,0 10.32,-4.63594 10.32,-10.32v-123.84h3.44c1.23625,0.01344 2.39188,-0.63156 3.02344,-1.70656c0.61813,-1.075 0.61813,-2.39187 0,-3.46687c-0.63156,-1.075 -1.78719,-1.72 -3.02344,-1.70656h-34.4v-6.88c0,-5.65719 -4.66281,-10.32 -10.32,-10.32zM72.24,13.76h27.52c1.90813,0 3.44,1.53188 3.44,3.44v6.88h-34.4v-6.88c0,-1.90812 1.53188,-3.44 3.44,-3.44zM61.92,68.8c0.87344,0 1.76031,0.33594 2.43219,1.00781l21.64781,21.64781l21.64781,-21.64781c1.34375,-1.34375 3.52062,-1.34375 4.86437,0c1.34375,1.34375 1.34375,3.52062 0,4.86437l-21.64781,21.64781l21.64781,21.64781c1.34375,1.34375 1.34375,3.52062 0,4.86437c-0.67187,0.67188 -1.54531,1.00781 -2.43219,1.00781c-0.88687,0 -1.76031,-0.33594 -2.43219,-1.00781l-21.64781,-21.64781l-21.64781,21.64781c-0.67187,0.67188 -1.54531,1.00781 -2.43219,1.00781c-0.88687,0 -1.76031,-0.33594 -2.43219,-1.00781c-1.34375,-1.34375 -1.34375,-3.52062 0,-4.86437l21.64781,-21.64781l-21.64781,-21.64781c-1.34375,-1.34375 -1.34375,-3.52062 0,-4.86437c0.67187,-0.67188 1.55875,-1.00781 2.43219,-1.00781z"></path></g></g></svg>
