<svg xmlns="http://www.w3.org/2000/svg" x="0px" y="0px"
width="24" height="24"
viewBox="0 0 172 172"
style=" fill:#000000;"><g fill="none" fill-rule="nonzero" stroke="none" stroke-width="1" stroke-linecap="butt" stroke-linejoin="miter" stroke-miterlimit="10" stroke-dasharray="" stroke-dashoffset="0" font-family="none" font-weight="none" font-size="none" text-anchor="none" style="mix-blend-mode: normal"><path d="M0,172v-172h172v172z" fill="none"></path><g fill="#f1c40f"><path d="M83.98438,13.77344c-30.77188,-0.57781 -59.74313,18.73188 -69.95563,49.43656c-6.08719,18.31531 -4.67625,37.89375 3.96406,55.1475c8.64031,17.25375 23.48875,30.1 41.79062,36.18719c7.53844,2.49938 15.19781,3.69531 22.73625,3.69531c5.85875,0 11.63688,-0.73906 17.24031,-2.10969v-7.12188c-12.02656,3.30563 -25.11469,3.225 -37.79969,-0.98094c-16.56844,-5.50937 -29.9925,-17.14625 -37.81313,-32.74719c-7.82062,-15.61438 -9.09719,-33.325 -3.58781,-49.89344c9.09719,-27.38563 34.68219,-44.74688 62.06781,-44.74688c6.81281,0 13.74656,1.075 20.57281,3.34594c16.555,5.50938 29.9925,17.13281 37.81313,32.73375c2.12312,4.24625 3.72219,8.64031 4.87781,13.12844l-20.73406,-8.53281c-1.76031,-0.72563 -3.7625,0.1075 -4.48813,1.85437c-0.72562,1.76031 0.1075,3.77594 1.86781,4.50156l27.1975,11.19344c0.43,0.17469 0.86,0.25531 1.30344,0.25531c1.35719,0 2.63375,-0.79281 3.17125,-2.12312l10.6425,-25.84031c0.72563,-1.76031 -0.1075,-3.7625 -1.86781,-4.50156c-1.76031,-0.71219 -3.7625,0.12094 -4.48812,1.88125l-6.81281,16.555c-1.1825,-3.89687 -2.66062,-7.74 -4.515,-11.44875c-8.65375,-17.25375 -23.50219,-30.1 -41.80406,-36.18719c-7.08156,-2.35156 -14.28406,-3.5475 -21.37906,-3.68188zM119.80875,106.64c-7.25625,0 -13.16875,5.9125 -13.16875,13.16875v39.0225c0,7.25625 5.9125,13.16875 13.16875,13.16875h39.0225c7.25625,0 13.16875,-5.9125 13.16875,-13.16875v-39.0225c0,-7.25625 -5.9125,-13.16875 -13.16875,-13.16875zM155.48531,123.84l5.16,4.47469l-23.04531,26.48531l-16.16531,-12.37594l4.12531,-5.50938l11.35469,8.6z"></path></g></g></svg>
